<?xml version="1.0" standalone="no"?>
<!DOCTYPE svg PUBLIC "-//W3C//DTD SVG 20010904//EN"
 "http://www.w3.org/TR/2001/REC-SVG-20010904/DTD/svg10.dtd">
<svg version="1.0" xmlns="http://www.w3.org/2000/svg"
 width="520.000000pt" height="520.000000pt" viewBox="0 0 520.000000 520.000000"
 preserveAspectRatio="xMidYMid meet">
<metadata>
Created by potrace 1.16, written by Peter Selinger 2001-2019
</metadata>
<g transform="translate(0.000000,520.000000) scale(0.100000,-0.100000)"
fill="#000000" stroke="none">
<path d="M2237 4185 c-62 -17 -112 -56 -138 -108 -18 -34 -21 -52 -16 -109 l6
-68 -45 -11 c-51 -13 -71 -41 -60 -83 9 -37 38 -49 92 -38 24 5 44 8 44 7 0
-12 83 -387 91 -413 14 -41 49 -58 87 -40 49 24 49 49 4 265 -23 109 -42 203
-42 210 0 6 26 17 58 23 88 18 114 55 76 109 -18 25 -13 24 -149 8 -17 -2 -20
5 -23 47 -4 65 13 82 85 88 82 7 109 53 58 103 -27 28 -55 30 -128 10z"/>
<path d="M1566 3970 c-46 -14 -104 -60 -136 -108 -39 -59 -40 -118 -5 -188 14
-27 25 -52 25 -56 0 -3 -16 -16 -35 -28 -42 -26 -53 -61 -31 -94 24 -38 51
-41 98 -13 l42 25 108 -177 c109 -177 135 -211 168 -211 27 0 70 39 70 64 0
21 -51 111 -177 312 l-51 81 56 39 c63 44 78 80 46 115 -24 27 -58 24 -120
-11 l-53 -31 -21 42 c-29 56 -21 83 33 110 57 29 77 48 77 73 -1 46 -43 71
-94 56z"/>
<path d="M2887 3940 c-123 -31 -208 -126 -237 -265 -41 -199 89 -362 299 -373
116 -7 201 29 201 84 0 40 -28 57 -79 49 -165 -28 -257 15 -291 134 -5 19 -8
36 -6 38 1 2 92 -15 201 -37 109 -22 202 -40 207 -40 5 0 20 11 33 25 51 51
25 199 -51 292 -62 75 -183 116 -277 93z m133 -138 c41 -20 80 -75 80 -112 l0
-27 -150 30 c-82 16 -150 34 -150 40 0 5 17 27 39 48 35 36 43 39 92 39 31 0
69 -7 89 -18z"/>
<path d="M3629 3586 c-98 -26 -178 -94 -228 -194 -47 -92 -45 -203 5 -289 59
-102 269 -199 315 -147 46 53 23 100 -55 115 -92 17 -156 88 -156 173 0 99 79
199 167 212 84 12 159 -33 205 -126 18 -34 29 -46 50 -48 58 -7 88 71 53 137
-20 40 -116 124 -167 148 -57 27 -132 34 -189 19z"/>
<path d="M1044 3201 c-122 -44 -190 -141 -188 -271 1 -88 31 -155 98 -219 80
-75 146 -105 231 -105 94 0 160 30 224 99 94 104 130 245 75 299 -41 42 -88 4
-98 -78 -6 -41 -16 -68 -39 -98 -53 -68 -80 -83 -152 -83 -35 0 -66 3 -70 7
-4 3 45 82 109 174 68 97 116 177 116 191 0 32 -28 57 -94 82 -69 26 -144 26
-212 2z m143 -120 c9 -5 -15 -47 -75 -134 l-87 -127 -22 28 c-30 36 -37 72
-23 123 25 92 132 149 207 110z"/>
<path d="M4168 3113 c-26 -29 -28 -56 -9 -93 l19 -34 -161 -96 c-143 -85 -163
-101 -184 -140 -26 -49 -24 -78 8 -142 35 -69 106 -100 143 -62 22 22 20 41
-9 76 -33 39 -32 52 8 81 47 35 253 157 265 157 6 0 13 -9 17 -19 9 -31 61
-81 82 -81 28 0 63 37 63 66 0 13 -11 42 -25 64 l-25 39 43 28 c69 47 75 99
13 133 -25 14 -30 13 -76 -12 l-49 -27 -23 32 c-12 17 -27 35 -33 39 -18 13
-51 8 -67 -9z"/>
<path d="M2401 2875 c-131 -29 -284 -96 -401 -175 -114 -78 -264 -250 -330
-380 -110 -218 -141 -510 -76 -735 71 -244 219 -456 406 -579 l55 -36 538 0
538 0 62 42 c200 136 359 378 412 631 20 90 20 324 0 415 -83 399 -394 715
-796 812 -101 24 -308 26 -408 5z m443 -89 c95 -29 220 -87 295 -139 85 -57
223 -207 279 -302 60 -102 120 -275 129 -372 l6 -64 -179 2 -179 2 -3 -32 c-2
-20 1 -31 10 -31 7 -1 87 -2 178 -2 l165 -2 -158 -3 -157 -3 35 -32 c50 -43
65 -77 65 -145 0 -32 3 -75 6 -95 l6 -37 77 -4 76 -3 -82 -2 -82 -2 -3 -143
c-3 -138 -4 -145 -31 -186 -35 -52 -109 -101 -155 -101 -21 0 -46 -10 -70 -29
-64 -50 -78 -51 -486 -51 -362 0 -383 1 -426 21 -25 11 -54 28 -65 38 -11 10
-39 21 -63 24 -55 7 -114 46 -149 99 -27 40 -28 48 -31 185 l-3 143 -77 2 -77
2 76 3 75 4 3 79 2 80 -106 0 c-58 0 -105 3 -105 8 0 4 47 6 104 4 l104 -3 6
25 c3 15 26 46 49 71 l43 45 -160 3 -161 3 188 2 188 2 -3 33 c-2 18 -8 32
-15 31 -7 -1 -87 -2 -177 -2 -162 -2 -165 -2 -169 -24 -13 -66 -5 39 8 118 37
211 111 358 259 513 110 114 223 187 386 248 109 42 183 52 330 49 112 -3 150
-8 224 -30z"/>
<path d="M2391 2674 c-13 -17 -21 -41 -21 -65 l0 -39 -77 0 c-93 0 -143 -20
-190 -73 -18 -20 -37 -53 -42 -74 -7 -23 -11 -157 -11 -330 l0 -293 -31 0
c-23 0 -42 -10 -71 -39 l-39 -40 3 -240 3 -240 35 -37 c38 -40 85 -64 124 -64
14 0 46 -15 72 -32 l46 -33 392 0 393 0 50 31 c27 17 68 33 92 37 57 7 114 47
136 94 16 32 19 71 23 240 4 189 3 205 -17 245 -22 46 -49 68 -96 78 l-30 6
-5 316 -5 316 -30 43 c-46 65 -100 89 -202 89 l-83 0 0 39 c0 23 -8 48 -20 64
-20 25 -22 25 -170 26 -150 2 -150 2 -176 -24 l-27 -27 5 26 c7 33 -5 33 -31
0z m328 -73 c12 -16 21 -32 21 -35 0 -8 -229 -8 -269 0 l-32 7 27 28 c27 28
30 29 130 29 102 0 103 0 123 -29z m-419 -212 c0 -106 -2 -120 -16 -115 -9 3
-22 6 -29 6 -7 0 -27 12 -44 26 l-31 26 0 -56 c0 -49 3 -58 32 -85 18 -16 25
-29 18 -28 -57 9 -120 107 -120 186 0 92 63 161 146 161 l44 0 0 -121z m510
51 l0 -69 -220 -3 -220 -3 0 73 0 72 220 0 220 0 0 -70z m212 31 c30 -33 30
-64 2 -105 -13 -19 -14 -18 -25 12 -14 39 -49 63 -49 34 0 -25 -24 -45 -47
-40 -19 4 -26 54 -15 112 5 27 6 28 55 23 41 -3 56 -11 79 -36z m-852 -502 l0
-146 -30 -38 -30 -38 0 219 1 219 29 -35 29 -35 1 -146z m128 -257 l3 -73 -28
3 c-17 2 -32 12 -39 27 -12 23 -12 23 -23 3 -15 -28 -14 -58 4 -92 19 -36 6
-38 -31 -7 -22 19 -28 34 -32 78 -3 45 0 59 19 83 25 32 74 57 104 53 18 -2
20 -11 23 -75z m512 3 l0 -75 -214 0 c-215 0 -215 0 -219 -22 -2 -13 -5 18 -6
68 0 50 2 94 6 97 3 4 102 7 220 7 l213 0 0 -75z m144 61 c47 -20 76 -61 76
-108 0 -45 -22 -93 -49 -108 -29 -15 -31 -13 -15 18 20 38 17 76 -7 103 -11
13 -18 18 -14 12 10 -21 -14 -53 -40 -53 -23 0 -25 3 -25 53 0 98 10 110 74
83z m-944 -318 c-1 -186 1 -209 28 -240 19 -22 4 -23 -26 -2 -46 32 -52 61
-52 249 l0 175 25 0 26 0 -1 -182z m156 -51 c3 -56 1 -133 -3 -172 l-8 -70
-22 36 c-22 34 -23 47 -23 205 l0 169 26 -33 c24 -30 27 -44 30 -135z"/>
</g>
</svg>
